<?xml version="1.0" encoding="UTF-8"?>
<svg id="_图层_2" data-name="图层 2" xmlns="http://www.w3.org/2000/svg" viewBox="0 0 85.04 104.88">
  <defs>
    <style>
      .cls-1 {
        fill: #7b5266;
      }
    </style>
  </defs>
  <g id="_图层_1-2" data-name="图层 1">
    <path class="cls-1" d="M19.46,0c.56,5.69.13,10.12-.37,13.12-.61,3.63-1.46,6.02-1.07,9.7.36,3.42,1.6,6.1,2.56,7.8-.54.99-1.15,2.74-2.73,3.99-1.86,1.48-3.72,3.37-6.22,5.66-4.11,3.76-6.8,9.59-8.73,11.34-1.25,1.13-2.21,2.14-2.9,2.72,1.71.59,4.65,1.36,8.33,1.07,3.55-.28,6.27-1.42,7.86-2.24-1.13,3.97-1.95,7.32-2.24,9.82-.71,6.05-.79,9.94-.47,14.39.2,2.82,1.76,5.13,2.99,6.12.21-.69.41-1.59.49-2.66.08-1.18-.01-2.2-.14-2.96.34,1.54,1.21,4.53,3.6,7.41,2.03,2.44,4.26,3.74,5.59,4.38-.15.55-.54,2.24.21,4.11.48,1.21,1.23,1.98,1.67,2.36-.99,2.64-.75,5.39.76,7.12.25.29,1.57,1.82,3.31,1.6,1.8-.23,3.05-2.22,3.24-4,.2-1.81-.68-3.63-2.23-4.7.21-.59.49-1.61.42-2.88-.08-1.57-.64-2.73-.96-3.3.63-.72,1.42-1.84,1.8-3.37.31-1.25.13-1.91.28-2.72.23-1.26,1.24-2.9,4.75-4.47,3.2.6,8.38.4,12.46.39,8.93-.02,16.5-3.23,19.96-8.23-.41,4.37-1.97,9.89-2.66,12.22.97-.34,2.12-.76,2.72-1.79-1.3,4.42-3.41,8.81-3.62,11.54,1.63-.19,4.01-.68,6.42-2.14,9.33-5.65,9.93-20.27,10.31-29.52.45-11,1.01-24.48-8.13-35.53-2.22-2.68-7.11-7.76-14.94-10.48-13.83-4.81-25.89,1.52-28.36,2.89-.21-1.99-.73-4.58-2-7.33C27.98,4.12,21.64.97,19.46,0Z"/>
  </g>
</svg>