<?xml version="1.0" encoding="UTF-8"?>
<svg id="_图层_2" data-name="图层 2" xmlns="http://www.w3.org/2000/svg" viewBox="0 0 85.04 104.88">
  <defs>
    <style>
      .cls-1 {
        fill: #01a0c6;
      }
    </style>
  </defs>
  <g id="_图层_1-2" data-name="图层 1">
    <path class="cls-1" d="M3.61,1.11c-.72,1.8-1.65,4.68-1.74,8.27-.19,7.57,3.46,13.41,7.12,19.25,1.45,2.32,3.66,5.53,6.83,9.08-2.49,2.77-7.54,9.14-9.62,18.85-1.84,8.56-.48,15.62.46,19.19-1.86,1.95-5.34,6.21-6.28,12.49-.39,2.62-.97,6.46,1.17,10.17,3.29,5.7,10.27,6.39,11.18,6.47-.4-1.22-.77-2.64-1.04-4.26-.29-1.73-.39-3.31-.39-4.65,1.31,1.53,3.23,3.27,6.41,5.07,4.82,2.74,8.41,3.07,23.9,3.04,16.22-.04,20.33-.38,25.36-3.38,2.78-1.65,4.95-3.13,6.16-4.5.12,1.82,0,4.15-.86,6.68-.19.56-.4,1.09-.62,1.58,1.63.17,4.44.2,7.09-1.28,5.65-3.14,6.12-10.6,6.26-12.7.59-8.93-5.3-15.3-6.62-16.65.64-3.75,1.33-10.83-.99-19.19-2.32-8.36-6.56-14.02-9.03-16.89,3.66-3.46,14.94-15.01,14.04-30.46-.15-2.62-.64-5.05-1.33-7.28-2.64.62-5.5,1.57-8.42,3-13.69,6.73-19.32,19.61-21.2,24.69-2.79-.22-5.85-.36-9.12-.34-3.23.02-6.24.19-9.01.44-2.09-5.16-8.08-17.75-21.79-24.04-2.74-1.26-5.42-2.1-7.93-2.65Z"/>
  </g>
</svg>